<svg width="72" height="72" viewBox="0 0 72 72" fill="none" xmlns="http://www.w3.org/2000/svg">
  <circle cx="36" cy="36" r="30" fill="#26303c"></circle>
  <circle cx="36" cy="36" r="30" fill="none" stroke="#566173" stroke-width="3"></circle>
  <line x1="36.0" y1="36.0" x2="36.0" y2="17.4" stroke="#566173" stroke-width="2.4"></line><line x1="36.0" y1="36.0" x2="52.1" y2="26.7" stroke="#566173" stroke-width="2.4"></line><line x1="36.0" y1="36.0" x2="52.1" y2="45.3" stroke="#566173" stroke-width="2.4"></line><line x1="36.0" y1="36.0" x2="36.0" y2="54.6" stroke="#566173" stroke-width="2.4"></line><line x1="36.0" y1="36.0" x2="19.9" y2="45.3" stroke="#566173" stroke-width="2.4"></line><line x1="36.0" y1="36.0" x2="19.9" y2="26.7" stroke="#566173" stroke-width="2.4"></line><line x1="36.0" y1="17.4" x2="52.1" y2="26.7" stroke="#566173" stroke-width="2.4"></line><line x1="52.1" y1="26.7" x2="52.1" y2="45.3" stroke="#566173" stroke-width="2.4"></line><line x1="52.1" y1="45.3" x2="36.0" y2="54.6" stroke="#566173" stroke-width="2.4"></line><line x1="36.0" y1="54.6" x2="19.9" y2="45.3" stroke="#566173" stroke-width="2.4"></line><line x1="19.9" y1="45.3" x2="19.9" y2="26.7" stroke="#566173" stroke-width="2.4"></line><line x1="19.9" y1="26.7" x2="36.0" y2="17.4" stroke="#566173" stroke-width="2.4"></line>
  <circle cx="36.0" cy="17.4" r="4" fill="#aab2bd"></circle><circle cx="52.1" cy="26.7" r="4" fill="#aab2bd"></circle><circle cx="52.1" cy="45.3" r="4" fill="#aab2bd"></circle><circle cx="36.0" cy="54.6" r="4" fill="#aab2bd"></circle><circle cx="19.9" cy="45.3" r="4" fill="#aab2bd"></circle><circle cx="19.9" cy="26.7" r="4" fill="#aab2bd"></circle>
  <circle cx="36" cy="36" r="5" fill="#d3d9e0"></circle>
</svg>