<svg width="72" height="72" viewBox="0 0 72 72" fill="none" xmlns="http://www.w3.org/2000/svg">
  <rect width="72" height="72" rx="16" fill="#1f2937"/>
  <defs><clipPath id="gc"><rect x="6" y="6" width="60" height="60" rx="12"/></clipPath></defs>
  <g clip-path="url(#gc)">
    <line x1="6" y1="18" x2="66" y2="18" stroke="#374151" stroke-width="1"/>
    <line x1="6" y1="30" x2="66" y2="30" stroke="#374151" stroke-width="1"/>
    <line x1="6" y1="42" x2="66" y2="42" stroke="#374151" stroke-width="1"/>
    <line x1="6" y1="54" x2="66" y2="54" stroke="#374151" stroke-width="1"/>
    <line x1="18" y1="6" x2="18" y2="66" stroke="#374151" stroke-width="1"/>
    <line x1="30" y1="6" x2="30" y2="66" stroke="#374151" stroke-width="1"/>
    <line x1="42" y1="6" x2="42" y2="66" stroke="#374151" stroke-width="1"/>
    <line x1="54" y1="6" x2="54" y2="66" stroke="#374151" stroke-width="1"/>
  </g>
  <polyline points="6,36 16,36 22,24 28,48 34,14 40,52 46,36 56,36 66,36" fill="none" stroke="#22c55e" stroke-width="3.5" stroke-linecap="round" stroke-linejoin="round"/>
  <circle cx="46" cy="36" r="5" fill="#1f2937"/>
  <circle cx="46" cy="36" r="2.5" fill="#22c55e"/>
</svg>
