<svg width="72" height="72" viewBox="0 0 72 72" fill="none" xmlns="http://www.w3.org/2000/svg">
<rect x="2" y="2" width="68" height="68" rx="9" fill="#2a323c"/>
<rect x="2" y="2" width="68" height="68" rx="9" fill="none" stroke="#3a444f" stroke-width="1"/>
<rect x="9" y="9" width="16" height="54" rx="3" fill="#4b5563"/>
<rect x="12" y="13" width="10" height="10" rx="2" fill="#374151"/>
<circle cx="17.0" cy="18" r="2.4" fill="#00ff9f"/>
<rect x="12.5" y="30" width="9" height="2.6" rx="1.3" fill="#3b82f6"/>
<rect x="12.5" y="35" width="6" height="2.6" rx="1.3" fill="#00ff9f"/>
<rect x="12" y="44" width="10" height="10" rx="2" fill="#374151"/>
<circle cx="17.0" cy="49" r="2" fill="#2d3748"/>
<rect x="28" y="9" width="16" height="54" rx="3" fill="#4b5563"/>
<rect x="31" y="13" width="10" height="10" rx="2" fill="#374151"/>
<circle cx="36.0" cy="18" r="2.4" fill="#00ff9f"/>
<rect x="31.5" y="30" width="9" height="2.6" rx="1.3" fill="#3b82f6"/>
<rect x="31.5" y="35" width="6" height="2.6" rx="1.3" fill="#00ff9f"/>
<rect x="31" y="44" width="10" height="10" rx="2" fill="#374151"/>
<circle cx="36.0" cy="49" r="2" fill="#2d3748"/>
<rect x="47" y="9" width="16" height="54" rx="3" fill="#4b5563"/>
<rect x="50" y="13" width="10" height="10" rx="2" fill="#374151"/>
<circle cx="55.0" cy="18" r="2.4" fill="#00ff9f"/>
<rect x="50.5" y="30" width="9" height="2.6" rx="1.3" fill="#3b82f6"/>
<rect x="50.5" y="35" width="6" height="2.6" rx="1.3" fill="#00ff9f"/>
<rect x="50" y="44" width="10" height="10" rx="2" fill="#374151"/>
<circle cx="55.0" cy="49" r="2" fill="#2d3748"/>
</svg>