<svg width="32" height="32" viewBox="0 0 32 32" xmlns="http://www.w3.org/2000/svg">
<rect width="32" height="32" fill="#e8e8e8" rx="5"/>
<rect x="4" y="10" width="2" height="6" fill="#3b82f6" rx="1" opacity="0.5"/>
<rect x="7" y="8" width="2" height="10" fill="#3b82f6" rx="1" opacity="0.7"/>
<rect x="10" y="11" width="2" height="4" fill="#3b82f6" rx="1" opacity="0.6"/>
<rect x="13" y="7" width="2" height="12" fill="#22c55e" rx="1"/>
<rect x="16" y="10" width="2" height="5" fill="#3b82f6" rx="1" opacity="0.4"/>
<rect x="19" y="9" width="2" height="8" fill="#3b82f6" rx="1" opacity="0.3"/>
<rect x="22" y="11" width="2" height="4" fill="#3b82f6" rx="1" opacity="0.2"/>
<rect x="25" y="10" width="2" height="5" fill="#3b82f6" rx="1" opacity="0.15"/>
<rect x="4" y="22" width="24" height="2" fill="#d0d0d0" rx="1"/>
<rect x="4" y="22" width="14" height="2" fill="#3b82f6" rx="1"/>
<circle cx="18" cy="23" r="1.5" fill="#fff"/>
<polygon points="12,27 12,30 15,28.5" fill="#3b82f6" stroke-linejoin="round"/>
<rect x="17" y="27" width="1.5" height="3" fill="#bbb" rx="0.5"/>
<rect x="19.5" y="27" width="1.5" height="3" fill="#bbb" rx="0.5"/>
</svg>
