<svg width="32" height="32" viewBox="0 0 32 32" xmlns="http://www.w3.org/2000/svg">
<rect width="32" height="32" fill="#e8e8e8" rx="5"/>
<rect x="2" y="2" width="28" height="9" fill="#c8c8c8" rx="2" stroke="#bbb" stroke-width="1"/>
<rect x="4" y="4" width="10" height="2.5" fill="#aaa" rx="1"/>
<rect x="4" y="7" width="7" height="2.5" fill="#a5a5a5" rx="1"/>
<circle cx="26.5" cy="6.5" r="1.8" fill="#3b82f6"/>
<line x1="10" y1="13.5" x2="10" y2="19.5" stroke="#3b82f6" stroke-width="1.8" stroke-linecap="round"/>
<polyline points="7.5,16 10,13.5 12.5,16" fill="none" stroke="#3b82f6" stroke-width="1.8" stroke-linecap="round" stroke-linejoin="round"/>
<line x1="22" y1="13.5" x2="22" y2="19.5" stroke="#22c55e" stroke-width="1.8" stroke-linecap="round"/>
<polyline points="19.5,17 22,19.5 24.5,17" fill="none" stroke="#22c55e" stroke-width="1.8" stroke-linecap="round" stroke-linejoin="round"/>
<rect x="2" y="21" width="28" height="9" fill="#c0c0c0" rx="2" stroke="#bbb" stroke-width="1"/>
<rect x="4" y="23" width="10" height="2.5" fill="#aaa" rx="1"/>
<rect x="4" y="26" width="7" height="2.5" fill="#a5a5a5" rx="1"/>
<circle cx="26.5" cy="26" r="1.8" fill="#f59e0b"/>
</svg>
