<svg width="32" height="32" viewBox="0 0 32 32" xmlns="http://www.w3.org/2000/svg">
<rect width="32" height="32" fill="#e8e8e8" rx="5"/>
<defs><clipPath id="gcl"><rect x="3" y="3" width="26" height="26" rx="3"/></clipPath></defs>
<g clip-path="url(#gcl)">
  <line x1="4" y1="3" x2="4" y2="29" stroke="#d0d0d0" stroke-width="0.5"/>
  <line x1="8" y1="3" x2="8" y2="29" stroke="#d0d0d0" stroke-width="0.5"/>
  <line x1="12" y1="3" x2="12" y2="29" stroke="#d0d0d0" stroke-width="0.5"/>
  <line x1="16" y1="3" x2="16" y2="29" stroke="#d0d0d0" stroke-width="0.5"/>
  <line x1="20" y1="3" x2="20" y2="29" stroke="#d0d0d0" stroke-width="0.5"/>
  <line x1="24" y1="3" x2="24" y2="29" stroke="#d0d0d0" stroke-width="0.5"/>
  <line x1="28" y1="3" x2="28" y2="29" stroke="#d0d0d0" stroke-width="0.5"/>
  <line x1="3" y1="4" x2="29" y2="4" stroke="#d0d0d0" stroke-width="0.5"/>
  <line x1="3" y1="8" x2="29" y2="8" stroke="#d0d0d0" stroke-width="0.5"/>
  <line x1="3" y1="12" x2="29" y2="12" stroke="#d0d0d0" stroke-width="0.5"/>
  <line x1="3" y1="16" x2="29" y2="16" stroke="#d0d0d0" stroke-width="0.5"/>
  <line x1="3" y1="20" x2="29" y2="20" stroke="#d0d0d0" stroke-width="0.5"/>
  <line x1="3" y1="24" x2="29" y2="24" stroke="#d0d0d0" stroke-width="0.5"/>
  <line x1="3" y1="28" x2="29" y2="28" stroke="#d0d0d0" stroke-width="0.5"/>
</g>
<polyline points="3,16 7,16 9,12 11,20 13,8 15,22 17,16 19,16 29,16" fill="none" stroke="#22c55e" stroke-width="1.5" stroke-linecap="round" stroke-linejoin="round"/>
<circle cx="19" cy="16" r="2" fill="#e8e8e8" stroke="#22c55e" stroke-width="1.2"/>
<circle cx="19" cy="16" r="0.8" fill="#22c55e"/>
</svg>
